<svg id="Capa_1" data-name="Capa 1" xmlns="http://www.w3.org/2000/svg" xmlns:xlink="http://www.w3.org/1999/xlink" viewBox="0 0 137.96 161.02"><defs><style>.cls-1{fill:none;}.cls-2{clip-path:url(#clip-path);}.cls-3{opacity:0.5;}.cls-4{clip-path:url(#clip-path-2);}.cls-5{fill:#78d1d9;}.cls-6{fill:#fff;}.cls-7{fill:#f23863;}</style><clipPath id="clip-path"><rect class="cls-1" x="-311.57" y="-1351.13" width="1107.78" height="522.39"/></clipPath><clipPath id="clip-path-2"><rect class="cls-1" x="-326.37" y="-1683.09" width="1137.39" height="3022"/></clipPath></defs><g class="cls-2"><g class="cls-3"><g class="cls-4"><rect x="-321.65" y="-1682.09" width="1131.67" height="3020"/></g></g></g><path class="cls-5" d="M95.36,0A41.42,41.42,0,0,0,96,6.58H75.6V108.09a49.39,49.39,0,0,1-1.44,12.51c-8.3,18.3-31.81,15.91-38.31,3.35C45.52,130,61.43,128.4,68,114a49.87,49.87,0,0,0,1.43-12.51V0Zm13.88,30.7c5.25,4.2,12.5,7.3,22.49,7.89v5.83c-11.06-2-18.06-7.53-22.49-13.72M15.94,142.2c-33.27-28.86-11.75-93.14,39.4-85v6c-43.2-2-62.21,49.52-39.4,79.1"/><path class="cls-6" d="M101.58,6.58V6.7c0,2.36.7,36.35,36.37,38.47,0,31.61,0,0,0,26.26-2.68.16-23.48-1.35-36.42-12.89l0,51.12c.32,23.15-12.56,45.86-36.69,50.43-6.76,1.28-12.85,1.43-23.06-.81-58.86-17.6-39.31-104.9,19.8-95.56,0,28.18,0,0,0,28.18C37.15,88.32,29,108.62,35.47,123.17c5.9,13.24,30.21,16.11,38.69-2.57a49.39,49.39,0,0,0,1.44-12.51V6.58Z"/><path class="cls-7" d="M101.58,6.58v.13c0,1.38.25,13.65,7.66,24C100.31,23.56,97.12,13.24,96,6.58Zm30.15,37.84a50.5,50.5,0,0,0,6.21.75c0,31.62,0,0,0,26.26-2.68.15-23.48-1.34-36.42-12.89l0,51.12c.32,23.16-12.56,45.86-36.69,50.43-6.76,1.28-12.85,1.43-23.06-.81-11.51-3.44-20-9.54-25.81-17.07a52.66,52.66,0,0,0,19.6,10.51c10.2,2.22,16.29,2.08,23.05.8,24.13-4.58,37-27.28,36.7-50.42l0-51.14c13,11.55,33.75,13.06,36.44,12.89,0-24.39,0,1.14,0-20.43M55.34,63.1a56.82,56.82,0,0,1,6.2.62c0,28.19,0,0,0,28.19-24.41-3.6-32.58,16.71-26.1,31.26l.39.78a16.87,16.87,0,0,1-6.6-7.36c-6.47-14.54,1.68-34.85,26.1-31.26,0-25.83,0-4.33,0-22.23"/></svg>