<svg id="Capa_1" data-name="Capa 1" xmlns="http://www.w3.org/2000/svg" xmlns:xlink="http://www.w3.org/1999/xlink" viewBox="0 0 155.03 144.46"><defs><style>.cls-1{fill:none;}.cls-2{clip-path:url(#clip-path);}.cls-3{opacity:0.5;}.cls-4{clip-path:url(#clip-path-2);}.cls-5{fill:#78d1d9;}.cls-6{fill:#fff;}.cls-7{fill:#f23863;}.cls-8{fill:#69c9d1;}</style><clipPath id="clip-path"><rect class="cls-1" x="-681.92" y="-1359.41" width="1107.78" height="522.39"/></clipPath><clipPath id="clip-path-2"><rect class="cls-1" x="-696.73" y="-1691.37" width="1137.39" height="3022"/></clipPath></defs><g class="cls-2"><g class="cls-3"><g class="cls-4"><rect x="-692" y="-1690.37" width="1131.67" height="3020"/></g></g></g><path class="cls-5" d="M9.6,92.38a9.59,9.59,0,1,0,6.8,2.81,9.63,9.63,0,0,0-6.8-2.81"/><path class="cls-6" d="M9.6,99.28a9.61,9.61,0,0,0,0,19.21,9.59,9.59,0,0,0,9.61-9.61,9.59,9.59,0,0,0-9.61-9.6"/><path class="cls-7" d="M155,77.44a67.84,67.84,0,1,0-78.44,67V97.05H59.37V77.44H76.59V62.5c0-17,10.13-26.39,25.62-26.39a104.66,104.66,0,0,1,15.19,1.32V54.12h-8.56c-8.42,0-11,5.23-11,10.6V77.44H116.6l-3,19.61H97.79v47.41a67.86,67.86,0,0,0,57.24-67"/><path class="cls-8" d="M147.82,67.84a67.84,67.84,0,1,0-78.43,67V87.45H52.16V67.84H69.39v-15c0-17,10.12-26.39,25.62-26.39a104.62,104.62,0,0,1,15.18,1.32v16.7h-8.55c-8.43,0-11,5.23-11,10.59V67.84H109.4l-3,19.61H90.59v47.4a67.84,67.84,0,0,0,57.23-67"/><path class="cls-6" d="M150.23,72.64a67.84,67.84,0,1,0-78.44,67V92.25H54.56V72.64H71.79V57.7c0-17,10.13-26.4,25.62-26.4a103.67,103.67,0,0,1,15.18,1.33V49.32H104C95.62,49.32,93,54.55,93,59.92V72.64H111.8l-3,19.61H93v47.4a67.85,67.85,0,0,0,57.24-67"/></svg>