<svg id="Capa_1" data-name="Capa 1" xmlns="http://www.w3.org/2000/svg" xmlns:xlink="http://www.w3.org/1999/xlink" viewBox="0 0 141.37 144.46"><defs><style>.cls-1{fill:none;}.cls-2{clip-path:url(#clip-path);}.cls-3{opacity:0.5;}.cls-4{clip-path:url(#clip-path-2);}.cls-5{fill:#ed1c52;}.cls-6{fill:#78d1d9;}.cls-7{fill:#fff;}</style><clipPath id="clip-path"><rect class="cls-1" x="-501.11" y="-1359.41" width="1107.78" height="522.39"/></clipPath><clipPath id="clip-path-2"><rect class="cls-1" x="-515.92" y="-1691.37" width="1137.39" height="3022"/></clipPath></defs><g class="cls-2"><g class="cls-3"><g class="cls-4"><rect x="-511.2" y="-1690.37" width="1131.67" height="3020"/></g></g></g><path class="cls-5" d="M129.65,108a24.76,24.76,0,0,1-24.74,24.73H45.72A24.75,24.75,0,0,1,21,108V48.81A24.76,24.76,0,0,1,45.72,24.07h59.19a24.77,24.77,0,0,1,24.74,24.74ZM104.91,12.35H45.72A36.5,36.5,0,0,0,9.27,48.81V108a36.5,36.5,0,0,0,36.45,36.46h59.19A36.5,36.5,0,0,0,141.37,108V48.81a36.5,36.5,0,0,0-36.46-36.46"/><path class="cls-5" d="M75.32,100.72A22.32,22.32,0,1,1,97.63,78.4a22.34,22.34,0,0,1-22.31,22.32m0-56.35a34,34,0,1,0,34,34,34.08,34.08,0,0,0-34-34"/><path class="cls-6" d="M120.38,95.65a24.76,24.76,0,0,1-24.73,24.73H36.46A24.77,24.77,0,0,1,11.72,95.65V36.46A24.77,24.77,0,0,1,36.46,11.72H95.65a24.76,24.76,0,0,1,24.73,24.74ZM95.65,0H36.46A36.49,36.49,0,0,0,0,36.46V95.65A36.49,36.49,0,0,0,36.46,132.1H95.65A36.49,36.49,0,0,0,132.1,95.65V36.46A36.49,36.49,0,0,0,95.65,0"/><path class="cls-6" d="M66.05,88.37A22.32,22.32,0,1,1,88.37,66.05,22.35,22.35,0,0,1,66.05,88.37m0-56.36a34,34,0,1,0,34,34,34.08,34.08,0,0,0-34-34"/><path class="cls-7" d="M123.47,101.82a24.76,24.76,0,0,1-24.74,24.74H39.55a24.76,24.76,0,0,1-24.74-24.74V42.63A24.76,24.76,0,0,1,39.55,17.9H98.73a24.76,24.76,0,0,1,24.74,24.73ZM98.73,6.18H39.55A36.49,36.49,0,0,0,3.09,42.63v59.19a36.5,36.5,0,0,0,36.46,36.46H98.73a36.5,36.5,0,0,0,36.46-36.46V42.63A36.49,36.49,0,0,0,98.73,6.18"/><path class="cls-7" d="M69.14,94.55A22.32,22.32,0,1,1,91.46,72.23,22.34,22.34,0,0,1,69.14,94.55m0-56.36a34,34,0,1,0,34,34,34.08,34.08,0,0,0-34-34"/></svg>