<svg id="Capa_1" data-name="Capa 1" xmlns="http://www.w3.org/2000/svg" xmlns:xlink="http://www.w3.org/1999/xlink" viewBox="0 0 182.94 133.7"><defs><style>.cls-1{fill:none;}.cls-2{clip-path:url(#clip-path);}.cls-3{opacity:0.5;}.cls-4{clip-path:url(#clip-path-2);}.cls-5{fill:#f23863;}.cls-6{fill:#69c9d1;}.cls-7{fill:#fff;}</style><clipPath id="clip-path"><rect class="cls-1" x="-888.54" y="-1364.79" width="1107.78" height="522.39"/></clipPath><clipPath id="clip-path-2"><rect class="cls-1" x="-903.34" y="-1696.75" width="1137.39" height="3022"/></clipPath></defs><g class="cls-2"><g class="cls-3"><g class="cls-4"><rect x="-898.62" y="-1695.75" width="1131.67" height="3020"/></g></g></g><path class="cls-5" d="M79.05,98.87V47.17L124,73l-45,25.85m101.53-62c-2.05-13.63-9-20.19-22.67-21.89-10.13-1.25-20.31-1.61-30.49-2.07-.88,0-2,.51-2.67-.52H66.21c-.71,1.05-1.78.49-2.66.53-10,.5-20,.81-29.93,2.08C21.12,16.54,14.06,23.25,12,35.67,10.82,42.31,10.36,49,9.82,55.73c-.07.79.45,1.79-.55,2.39v29.8c1,.61.48,1.6.55,2.4.6,7.6,1,15.21,2.67,22.68a21.83,21.83,0,0,0,18.13,17.5,114.59,114.59,0,0,0,13.19,1.55Q73,134,102.29,133.65c19-.22,38.12-.39,57.08-2.65,11.53-1.37,18.63-8.07,20.76-19.46a161.16,161.16,0,0,0,2.27-21.12c.94-17.92.85-35.8-1.82-53.59"/><path class="cls-6" d="M69.78,86.52V34.82l45,25.84-45,25.86m101.53-62c-2.05-13.64-9-20.19-22.66-21.89C138.52,1.33,128.33,1,118.15.51c-.88,0-2,.52-2.67-.51H56.94c-.7,1.05-1.77.48-2.66.53-10,.5-20,.81-29.93,2.07C11.85,4.19,4.8,10.9,2.68,23.31,1.55,30,1.09,36.67.55,43.37c-.06.8.45,1.79-.55,2.4v29.8c1,.6.49,1.6.55,2.4.6,7.59,1,15.21,2.68,22.68,2.07,9.43,8.64,15.74,18.12,17.49a112.69,112.69,0,0,0,13.19,1.56q29.22,1.93,58.48,1.59c19.06-.21,38.12-.39,57.09-2.64,11.52-1.37,18.62-8.08,20.75-19.46a159.46,159.46,0,0,0,2.27-21.12c1-17.92.85-35.81-1.82-53.59"/><path class="cls-7" d="M72.87,92.69V41l45,25.84-45,25.85m101.53-62c-2.05-13.63-9-20.18-22.66-21.88-10.13-1.26-20.32-1.62-30.5-2.08-.89,0-1.95.51-2.67-.51H60c-.71,1-1.78.48-2.66.52-10,.51-20,.81-29.93,2.08C14.94,10.37,7.89,17.07,5.77,29.49,4.64,36.14,4.18,42.85,3.64,49.55c-.06.79.45,1.79-.55,2.39v29.8c1,.61.49,1.61.55,2.4.6,7.6,1,15.21,2.68,22.69,2.07,9.42,8.64,15.74,18.12,17.49a114.87,114.87,0,0,0,13.19,1.56q29.22,1.92,58.48,1.59c19.06-.22,38.12-.39,57.09-2.64,11.52-1.37,18.62-8.08,20.75-19.47a161,161,0,0,0,2.27-21.12c.95-17.91.85-35.8-1.82-53.59"/></svg>