<svg id="Capa_1" data-name="Capa 1" xmlns="http://www.w3.org/2000/svg" viewBox="0 0 500 413.97"><defs><style>.cls-1{fill:#ef3e65;}.cls-2{fill:#6bcad0;}.cls-3{fill:#fff;}</style></defs><path class="cls-1" d="M450.58,120.17,451,133c0,130.51-99.28,281-281,281A279.07,279.07,0,0,1,18.64,369.5a180.89,180.89,0,0,0,22.24,1.34h1.35a27.78,27.78,0,0,0,4.27-.22,196.5,196.5,0,0,0,118.37-42,106.91,106.91,0,0,1-20.89-2.7,89,89,0,0,1-18.42-6.29,103.49,103.49,0,0,0,12.36-7.86A99.07,99.07,0,0,1,101.3,294,94.76,94.76,0,0,1,81.54,280.1a106.61,106.61,0,0,1-9-20c.45,0,.68.22,1.13.22a110.15,110.15,0,0,0,17.51,1.57,100.11,100.11,0,0,0,26.06-3.36A92.71,92.71,0,0,1,88.5,247.75a65.5,65.5,0,0,1-13.25-9,64,64,0,0,0,14.82-1.57,78.87,78.87,0,0,1-18.42-11.46,91.6,91.6,0,0,1-20.21-14.38c-.23,0-.23-.44-.23-.44A97.7,97.7,0,0,1,40.88,186,108.38,108.38,0,0,1,38,161.72v-1.34a97.14,97.14,0,0,0,44.7,12.35,88.92,88.92,0,0,1-17.75-15.27,58.37,58.37,0,0,1-6.73-8.09,46.17,46.17,0,0,0,5.84.45,76.71,76.71,0,0,1-11.68-9.43,93.5,93.5,0,0,1-10.56-25.84,94,94,0,0,1-2.92-24A98.27,98.27,0,0,1,52.11,40.88c48.74,59.75,121.52,99.28,203.73,103.32a92.94,92.94,0,0,1-2.7-22.46A98.85,98.85,0,0,1,424.08,54.13c5.39-1.12,10.78-2.47,16.17-3.82A252.66,252.66,0,0,0,471.7,38.18a86,86,0,0,1-12.36,16.18,97.36,97.36,0,0,1-20.66,16.39,190.37,190.37,0,0,0,27.85-5.39,9.45,9.45,0,0,1-2.47,2.92,97.65,97.65,0,0,1-20.66,16.4c1.79-.22,3.37-.45,5.16-.67A160.74,160.74,0,0,0,478,77.27a199.27,199.27,0,0,0,22-8.09A193.81,193.81,0,0,1,450.58,120.17Z"/><path class="cls-2" d="M438.68,70.75a190.37,190.37,0,0,0,27.85-5.39,9.45,9.45,0,0,1-2.47,2.92A146.48,146.48,0,0,1,448.56,84a159.07,159.07,0,0,1-16.62,13.25l.45,12.8c0,130.51-99.28,281-281,281A275.41,275.41,0,0,1,46.5,370.62a234.65,234.65,0,0,1-31.23-15.05c-5.16-2.7-10.33-5.84-15.27-9a202.68,202.68,0,0,0,23.36,1.34,197.81,197.81,0,0,0,102.2-28.3,103.49,103.49,0,0,0,12.36-7.86c2.92-1.8,5.61-4,8.31-6.07A100.18,100.18,0,0,1,101.3,294,94.76,94.76,0,0,1,81.54,280.1a97.79,97.79,0,0,1-27.63-42.9A101.14,101.14,0,0,0,72.55,239a11.2,11.2,0,0,0,2.7-.22,64,64,0,0,0,14.82-1.57,53.81,53.81,0,0,0,8.31-1.58,86.89,86.89,0,0,1-26.73-9.88,91.6,91.6,0,0,1-20.21-14.38c-.23,0-.23-.44-.23-.44a96.69,96.69,0,0,1-31.89-72.33v-1.12a98.36,98.36,0,0,0,38.86,11.9,46.17,46.17,0,0,0,5.84.45,76.71,76.71,0,0,1-11.68-9.43A98.08,98.08,0,0,1,33.47,18c3.82,4.72,7.64,9.21,11.68,13.48a294.13,294.13,0,0,0,64.69,52.11,4.79,4.79,0,0,0,1.8,1.12A285.59,285.59,0,0,0,237,121.29a108.09,108.09,0,0,1-2.47-22.68C234.5,44.25,278.75,0,333.33,0a98,98,0,0,1,60,20.21,81.94,81.94,0,0,1,12.13,11c1.12-.22,2-.45,3.14-.67A201.91,201.91,0,0,0,468.1,7.19a91.73,91.73,0,0,1-9.65,20.66,97.48,97.48,0,0,1-18.2,22.46,98.63,98.63,0,0,1-15.5,11.46,179.25,179.25,0,0,0,34.59-7.41A97.36,97.36,0,0,1,438.68,70.75Z"/><path class="cls-3" d="M495.28,55.26a177.24,177.24,0,0,1-17.29,22,188.55,188.55,0,0,1-32.12,29l.45,12.81c0,130.5-99.28,281-281,281a278.7,278.7,0,0,1-124.44-29.2,267.57,267.57,0,0,1-26.95-15.27h1.34a178.92,178.92,0,0,0,22.24,1.35,196.31,196.31,0,0,0,106.47-31,159.12,159.12,0,0,0,16.17-11.23,103.41,103.41,0,0,1-22.23-2.92A99.07,99.07,0,0,1,101.3,294a95.6,95.6,0,0,1-27.62-33.69,97.75,97.75,0,0,1-5.84-14.15A101.05,101.05,0,0,0,86.48,248a6.07,6.07,0,0,0,2-.23,94,94,0,0,0,24-3.14,97.51,97.51,0,0,1-22.46-7.41,78.87,78.87,0,0,1-18.42-11.46A96.37,96.37,0,0,1,40.88,186a97.38,97.38,0,0,1-7.64-38.18v-1.35a94.92,94.92,0,0,0,31.67,11,83.13,83.13,0,0,0,13,1.35,95.9,95.9,0,0,1-36.16-44.26,97.1,97.1,0,0,1-7.64-38,95.78,95.78,0,0,1,11-45.14A42.79,42.79,0,0,1,47.39,27a288.11,288.11,0,0,0,62.45,56.61,4.79,4.79,0,0,0,1.8,1.12,280.47,280.47,0,0,0,139.48,45.6,93.56,93.56,0,0,1-2.69-22.46A99.07,99.07,0,0,1,393.31,20.21a86.69,86.69,0,0,1,15.27,10.34,71.58,71.58,0,0,1,10.78,9.66,176.32,176.32,0,0,0,39.09-12.36A192.74,192.74,0,0,0,482,16.17a85.78,85.78,0,0,1-10.33,22,86,86,0,0,1-12.36,16.18,97.36,97.36,0,0,1-20.66,16.39,190.37,190.37,0,0,0,27.85-5.39A181.68,181.68,0,0,0,495.28,55.26Z"/></svg>